<svg width="145" height="38" viewBox="0 0 145 38" fill="none" xmlns="http://www.w3.org/2000/svg">
<rect width="145" height="38" fill="#1E1E1E"/>
<g id="Desktop - 1" clip-path="url(#clip0_0_1)">
<rect width="1366" height="5436" transform="translate(-645 -919)" fill="white"/>
<g id="Frame 5">
<rect width="1366" height="203" transform="translate(-645 -101)" fill="#F4F5F5"/>
<g id="Group 21">
<path id="Vector" d="M144.938 10.0562C144.317 4.70375 139.167 0.269272 132.946 0.490525C118.462 0.46228 103.982 0.429329 89.4982 0.396376C88.7834 0.372839 77.6898 0.146879 72.6204 8.37091C70.8757 11.2048 70.4337 14.0764 70.3537 16.0347H63.629C62.1053 12.0851 60.5817 8.13082 59.058 4.17651C57.3698 1.45557 54.3648 -0.144984 51.2187 0.0103637C46.7794 0.231617 44.4563 3.8564 44.2541 4.17651C40.6002 13.3515 36.9462 22.5264 33.2923 31.7014C27.0472 31.626 20.8021 31.546 14.5617 31.4707C13.3719 31.0847 11.3545 30.2279 9.7321 28.3072C7.27732 25.4074 7.31965 21.9662 7.35257 18.9911C7.38549 15.983 7.42781 12.3205 10.113 9.50542C11.6226 7.9284 13.386 7.21756 14.5006 6.88333C21.1219 6.8033 27.7479 6.72328 34.3692 6.64325V0.330471C27.7526 0.358716 21.136 0.386961 14.5194 0.410498C12.328 0.725902 8.37304 1.67212 5.11882 4.86381C0.491426 9.40185 0.181053 15.6346 0.0305685 18.6427C-0.0964026 21.2365 0.19516 23.402 0.482021 24.8896C0.674829 26.01 1.7 31.2494 6.59074 34.8319C10.682 37.8305 14.9849 37.84 16.3205 37.7929C23.5108 37.7929 30.6964 37.7929 37.8868 37.7976C39.9747 32.7135 42.0627 27.6341 44.1507 22.5499H59.0204C61.0049 27.6906 62.9894 32.8265 64.9739 37.9671C67.5604 37.9718 70.1468 37.9765 72.7333 37.9812C70.7205 32.8641 68.7078 27.747 66.6904 22.6253C67.9131 22.6347 69.1311 22.6394 70.349 22.6488C70.3914 23.7974 70.7017 29.0275 74.9858 33.2831C79.0207 37.2892 83.8691 37.7364 85.0918 37.8117C89.2583 37.8729 93.4202 37.9388 97.582 38C103.639 37.501 108.177 32.2898 107.909 26.5325C107.66 21.2177 103.38 16.6844 97.8218 16.1289C91.2428 16.0442 84.6639 15.9641 78.0849 15.8794C78.0284 15.3286 77.7745 12.3911 79.8907 9.83965C82.3125 6.91628 85.8442 6.91158 86.3051 6.91629C101.96 6.91158 117.615 6.90687 133.266 6.90216C135.64 6.96336 137.554 8.81342 137.714 11.0212C137.893 13.455 135.904 15.7099 133.284 15.8041C129.936 15.8606 126.593 15.9171 123.249 15.9735C122.821 15.9924 122.181 16.0347 121.415 16.1571C119.496 16.4537 115.339 17.0986 112.776 20.2856C110.557 23.0395 110.585 26.3819 110.669 27.6717C110.684 31.1035 110.693 34.5306 110.707 37.9623C113.115 37.9623 115.523 37.9576 117.93 37.9576C117.93 34.7189 117.935 31.4754 117.935 28.2366C117.926 27.9589 117.926 27.5587 117.987 27.0833C118.085 26.2971 118.269 24.8566 119.35 23.7504C120.216 22.8653 121.274 22.5782 121.866 22.4746C125.454 22.4275 129.043 22.3805 132.631 22.3287C133.797 22.3805 135.528 22.2957 137.394 21.5425C141.382 19.9373 145.563 15.4557 144.938 10.0562ZM47.1274 15.644C48.1667 12.9654 49.206 10.2822 50.2406 7.60358C50.5368 7.07163 51.1059 6.74682 51.7078 6.77036C52.606 6.80331 53.048 7.59417 53.0622 7.62712C54.1579 10.3622 55.2489 13.0973 56.3446 15.837C53.2738 15.7711 50.203 15.7099 47.1274 15.644ZM96.9659 22.4558C99.0727 22.8512 100.639 24.5836 100.799 26.6031C100.973 28.8768 99.322 31.0423 96.9236 31.4895C93.486 31.5083 90.0437 31.5319 86.6013 31.5507C85.7125 31.4989 83.3565 31.2353 81.198 29.4559C78.0331 26.8526 77.8168 23.0678 77.7933 22.4417C84.1842 22.4417 90.5751 22.4511 96.9659 22.4558Z" fill="#8D8D8D"/>
</g>
</g>
</g>
<defs>
<clipPath id="clip0_0_1">
<rect width="1366" height="5436" fill="white" transform="translate(-645 -919)"/>
</clipPath>
</defs>
</svg>
