<svg width="33" height="33" viewBox="0 0 33 33" fill="none" xmlns="http://www.w3.org/2000/svg">
<path id="Vector" d="M7.465 0C6.8181 0 6.18085 0.230709 5.64981 0.653675L5.57257 0.692127L5.53395 0.730578L1.67184 4.69108L1.71046 4.72953C0.518032 5.8254 0.151132 7.46439 0.667689 8.88229C0.672517 8.8919 0.662862 8.91113 0.667689 8.92074C1.71529 11.9055 4.39463 17.6685 9.62779 22.8786C14.8803 28.108 20.7458 30.6699 23.6472 31.7994H23.6859C25.1873 32.2992 26.8142 31.9436 27.9728 30.9534L31.8735 27.0698C32.897 26.0509 32.897 24.2821 31.8735 23.2631L26.8528 18.2645L26.8142 18.1875C25.7907 17.1686 23.9755 17.1686 22.9521 18.1875L20.4803 20.6484C19.5872 20.2207 17.4582 19.1248 15.421 17.1878C13.3982 15.2652 12.3651 13.0543 11.9837 12.1891L14.4554 9.72822C15.4934 8.69484 15.5127 6.97414 14.4168 5.95998L14.4554 5.92153L14.3396 5.80617L9.39606 0.730578L9.35744 0.692127L9.2802 0.653675C8.74916 0.230709 8.11191 0 7.465 0ZM7.465 2.46089C7.55673 2.46089 7.64846 2.50415 7.73535 2.57625L12.6789 7.61339L12.7947 7.72875C12.7851 7.71913 12.8671 7.84891 12.7175 7.99791L9.62779 11.074L9.04847 11.6123L9.31882 12.3814C9.31882 12.3814 10.7381 16.164 13.7216 18.995L13.992 19.2257C16.8644 21.8356 20.2486 23.2631 20.2486 23.2631L21.021 23.6092L24.69 19.9563C24.9024 19.7448 24.8638 19.7448 25.0762 19.9563L30.1356 24.9935C30.348 25.2049 30.348 25.128 30.1356 25.3395L26.3507 29.1078C25.7811 29.5932 25.1776 29.6942 24.4583 29.4538C21.6583 28.358 16.2175 25.9788 11.3657 21.1483C6.47534 16.2794 3.92152 10.7568 2.98496 8.07481C2.79668 7.57494 2.93185 6.83475 3.37117 6.45985L3.44841 6.38294L7.19466 2.57625C7.28156 2.50415 7.37328 2.46089 7.465 2.46089Z" fill="black"/>
</svg>
