<svg width="33" height="32" viewBox="0 0 33 32" fill="none" xmlns="http://www.w3.org/2000/svg">
<path id="Vector" d="M19.5405 0L18.7148 0.787486L12.3247 7.19476L11.499 7.98224L10.3502 9.12768L7.72959 11.7765L7.0834 12.4208L7.58599 13.2083C7.58599 13.2083 8.28603 14.2821 8.84247 15.4634C9.12069 16.054 9.37199 16.6804 9.45276 17.1099C9.49315 17.3247 9.49763 17.4544 9.48866 17.5037C9.36301 17.6021 7.85075 18.7967 6.04232 20.2599C4.1576 21.7811 2.15621 23.383 1.3395 24.1973C-0.446499 25.9781 -0.446499 28.8954 1.3395 30.6761C3.11652 32.448 6.01539 32.4346 7.80139 30.6761H7.83729C8.65849 29.8573 10.3054 27.8931 11.8221 26.0228C13.303 24.1973 14.5505 22.6447 14.6223 22.5507C14.6178 22.5552 14.6716 22.4791 15.089 22.5507C15.5063 22.6223 16.0986 22.8371 16.6685 23.1234C17.8083 23.6917 18.8584 24.4479 18.8584 24.4479L19.6482 25.0206L20.3303 24.3405L22.9868 21.7274L24.1356 20.582L24.9254 19.7587L31.3514 13.3873L32.1412 12.564L31.3514 11.7407L20.3662 0.787486L19.5405 0ZM21.0483 5.97773C21.2681 5.99563 21.4387 6.08064 21.5868 6.2283C22.1746 6.81891 21.3175 9.11425 20.9047 10.0941C20.4918 11.0785 20.622 11.8481 21.156 12.385C22.0669 13.3022 24.4767 11.1456 25.4998 12.1702C26.5184 13.1949 24.6651 15.3739 25.3203 16.0361C25.3338 16.0495 25.3427 16.0584 25.3562 16.0719L23.3099 18.1122L13.9761 8.80552L15.5557 7.23055C15.5781 7.2574 15.6005 7.27529 15.6275 7.30214C16.4083 8.08515 18.0103 7.33793 18.6789 6.9084C19.4687 6.4028 20.3931 5.92404 21.0483 5.97773ZM12.3247 10.4521L21.6586 19.7587L21.3355 20.0809L19.361 22.0854C18.9167 21.7811 18.6071 21.5306 17.7096 21.0831C17.023 20.7431 16.2781 20.4299 15.4839 20.2957C14.6896 20.1614 13.6844 20.1927 12.9709 20.9042L12.935 20.9758L12.8991 21.0116C12.8991 21.0116 11.5439 22.7252 10.0272 24.591C8.5104 26.4568 6.75133 28.5374 6.22181 29.0654C5.31535 29.9692 3.89733 29.9692 2.99087 29.0654C2.08441 28.1616 2.08441 26.7477 2.99087 25.8438C3.52038 25.3159 5.60704 23.5619 7.47829 22.0496C9.34955 20.5373 11.0682 19.186 11.0682 19.186L11.1041 19.1502L11.1759 19.1144C11.9029 18.3941 11.858 17.4365 11.7144 16.6804C11.5708 15.9242 11.2477 15.1859 10.9246 14.4969C10.4894 13.5662 10.2336 13.2262 9.95535 12.7787L12.0016 10.7742L12.3247 10.4521ZM4.89354 25.9154C4.19798 25.9154 3.63706 26.4747 3.63706 27.1683C3.63706 27.8618 4.19798 28.4211 4.89354 28.4211C5.58909 28.4211 6.15001 27.8618 6.15001 27.1683C6.15001 26.4747 5.58909 25.9154 4.89354 25.9154Z" fill="black"/>
</svg>
