<svg width="39" height="24" viewBox="0 0 39 24" fill="none" xmlns="http://www.w3.org/2000/svg">
<path d="M4.69265 19L0.530717 4.45455H3.89009L6.29776 14.5611H6.4185L9.07475 4.45455H11.9512L14.6003 14.5824H14.7282L17.1358 4.45455H20.4952L16.3333 19H13.3361L10.5662 9.49006H10.4526L7.68981 19H4.69265ZM29.8951 8.63778C29.8382 8.06487 29.5944 7.61979 29.1635 7.30256C28.7327 6.98532 28.1479 6.8267 27.4093 6.8267C26.9074 6.8267 26.4836 6.89773 26.138 7.03977C25.7923 7.17708 25.5272 7.36884 25.3425 7.61506C25.1626 7.86127 25.0726 8.14062 25.0726 8.45312C25.0632 8.71354 25.1176 8.94081 25.236 9.13494C25.3591 9.32907 25.5272 9.49716 25.7402 9.6392C25.9533 9.77651 26.1995 9.89725 26.4789 10.0014C26.7582 10.1009 27.0565 10.1861 27.3738 10.2571L28.6806 10.5696C29.315 10.7116 29.8974 10.901 30.4277 11.1378C30.958 11.3745 31.4173 11.6657 31.8056 12.0114C32.1938 12.357 32.4945 12.7642 32.7076 13.233C32.9254 13.7017 33.0366 14.2391 33.0414 14.8452C33.0366 15.7353 32.8094 16.5071 32.3596 17.1605C31.9145 17.8092 31.2705 18.3134 30.4277 18.6733C29.5897 19.0284 28.5788 19.206 27.3951 19.206C26.2208 19.206 25.1981 19.026 24.3269 18.6662C23.4604 18.3063 22.7833 17.7737 22.2956 17.0682C21.8127 16.358 21.5594 15.4796 21.5357 14.4332H24.5115C24.5447 14.9209 24.6844 15.3281 24.9306 15.6548C25.1815 15.9768 25.5153 16.2206 25.932 16.3864C26.3534 16.5473 26.8292 16.6278 27.3596 16.6278C27.8804 16.6278 28.3326 16.5521 28.7161 16.4006C29.1043 16.2491 29.405 16.0384 29.6181 15.7685C29.8311 15.4986 29.9377 15.1884 29.9377 14.8381C29.9377 14.5114 29.8406 14.2367 29.6465 14.0142C29.4571 13.7917 29.1777 13.6023 28.8084 13.446C28.4438 13.2898 27.9964 13.1477 27.4661 13.0199L25.8823 12.6222C24.656 12.3239 23.6877 11.8575 22.9775 11.223C22.2672 10.5885 21.9145 9.7339 21.9192 8.65909C21.9145 7.77841 22.1489 7.009 22.6223 6.35085C23.1006 5.69271 23.7563 5.17898 24.5897 4.80966C25.423 4.44034 26.37 4.25568 27.4306 4.25568C28.5101 4.25568 29.4524 4.44034 30.2573 4.80966C31.0669 5.17898 31.6967 5.69271 32.1465 6.35085C32.5963 7.009 32.8283 7.77131 32.8425 8.63778H29.8951Z" fill="white"/>
<rect x="36" y="16" width="3" height="3" fill="white"/>
</svg>
