<svg width="33" height="32" viewBox="0 0 33 32" fill="none" xmlns="http://www.w3.org/2000/svg">
<path id="Vector" d="M22.3541 0V7.95455L17.9712 10.5455V6.13636L15.7798 7.5L10.6664 10.5455V6.13636L8.47499 7.5L1.17018 11.8636L0.439697 12.2727V32H32.5809V0H22.3541ZM25.2761 2.90909H29.659V29.0909H3.36162V13.8636L7.74451 11.2727V15.6818L9.93595 14.3182L15.0493 11.2727V15.6818L17.2408 14.3182L24.5456 9.95455L25.2761 9.54545V2.90909ZM6.28355 17.4545V20.3636H9.20547V17.4545H6.28355ZM12.1274 17.4545V20.3636H15.0493V17.4545H12.1274ZM17.9712 17.4545V20.3636H20.8932V17.4545H17.9712ZM23.8151 17.4545V20.3636H26.737V17.4545H23.8151ZM6.28355 23.2727V26.1818H9.20547V23.2727H6.28355ZM12.1274 23.2727V26.1818H15.0493V23.2727H12.1274ZM17.9712 23.2727V26.1818H20.8932V23.2727H17.9712ZM23.8151 23.2727V26.1818H26.737V23.2727H23.8151Z" fill="black"/>
</svg>
