<svg width="126" height="16" viewBox="0 0 126 16" fill="none" xmlns="http://www.w3.org/2000/svg">
<path d="M4.95241 15L0.790483 0.454545H4.14986L6.55753 10.5611H6.67827L9.33452 0.454545H12.2109L14.8601 10.5824H14.9879L17.3956 0.454545H20.755L16.593 15H13.5959L10.826 5.49006H10.7124L7.94957 15H4.95241ZM26.1438 15.2131C25.0217 15.2131 24.0558 14.9858 23.2461 14.5312C22.4412 14.072 21.8209 13.4233 21.3853 12.5852C20.9497 11.7424 20.7319 10.7457 20.7319 9.59517C20.7319 8.47301 20.9497 7.48816 21.3853 6.64062C21.8209 5.79309 22.4341 5.13258 23.2248 4.65909C24.0202 4.18561 24.953 3.94886 26.0231 3.94886C26.7428 3.94886 27.4128 4.06487 28.033 4.29688C28.658 4.52415 29.2025 4.86742 29.6665 5.3267C30.1353 5.78598 30.4999 6.36364 30.7603 7.05966C31.0207 7.75095 31.1509 8.56061 31.1509 9.48864V10.3196H21.9393V8.4446H28.3029C28.3029 8.009 28.2082 7.62311 28.0188 7.28693C27.8294 6.95076 27.5666 6.68797 27.2305 6.49858C26.899 6.30445 26.5131 6.20739 26.0728 6.20739C25.6135 6.20739 25.2063 6.31392 24.8512 6.52699C24.5008 6.73532 24.2262 7.01705 24.0273 7.37216C23.8285 7.72254 23.7267 8.11316 23.7219 8.54403V10.3267C23.7219 10.8665 23.8214 11.3329 24.0202 11.7259C24.2238 12.1188 24.5103 12.4219 24.8796 12.6349C25.2489 12.848 25.6869 12.9545 26.1935 12.9545C26.5297 12.9545 26.8375 12.9072 27.1168 12.8125C27.3962 12.7178 27.6353 12.5758 27.8342 12.3864C28.033 12.197 28.1845 11.965 28.2887 11.6903L31.087 11.875C30.945 12.5473 30.6538 13.1345 30.2134 13.6364C29.7778 14.1335 29.2144 14.5218 28.5231 14.8011C27.8365 15.0758 27.0434 15.2131 26.1438 15.2131ZM33.1822 15V0.454545H36.2077V5.9233H36.3001C36.4326 5.62973 36.6244 5.33144 36.8754 5.02841C37.131 4.72064 37.4625 4.46496 37.8697 4.26136C38.2816 4.05303 38.793 3.94886 39.4038 3.94886C40.1992 3.94886 40.9331 4.1572 41.6055 4.57386C42.2778 4.9858 42.8152 5.60843 43.2177 6.44176C43.6201 7.27036 43.8214 8.30966 43.8214 9.55966C43.8214 10.7765 43.6249 11.804 43.2319 12.642C42.8436 13.4754 42.3133 14.1075 41.641 14.5384C40.9734 14.9645 40.2253 15.1776 39.3967 15.1776C38.8095 15.1776 38.31 15.0805 37.8981 14.8864C37.4909 14.6922 37.1571 14.4484 36.8967 14.1548C36.6362 13.8565 36.4374 13.5559 36.3001 13.2528H36.1651V15H33.1822ZM36.1438 9.54545C36.1438 10.1941 36.2338 10.7599 36.4137 11.2429C36.5936 11.7259 36.854 12.1023 37.195 12.3722C37.5359 12.6373 37.9502 12.7699 38.4379 12.7699C38.9303 12.7699 39.3469 12.6349 39.6879 12.3651C40.0288 12.0904 40.2868 11.7116 40.462 11.2287C40.6419 10.741 40.7319 10.1799 40.7319 9.54545C40.7319 8.91572 40.6443 8.36174 40.4691 7.88352C40.2939 7.4053 40.0359 7.03125 39.695 6.76136C39.354 6.49148 38.935 6.35653 38.4379 6.35653C37.9454 6.35653 37.5288 6.48674 37.1879 6.74716C36.8517 7.00758 36.5936 7.37689 36.4137 7.85511C36.2338 8.33333 36.1438 8.89678 36.1438 9.54545ZM53.7876 4.63778C53.7308 4.06487 53.487 3.61979 53.0561 3.30256C52.6252 2.98532 52.0405 2.8267 51.3018 2.8267C50.8 2.8267 50.3762 2.89773 50.0305 3.03977C49.6849 3.17708 49.4197 3.36884 49.2351 3.61506C49.0552 3.86127 48.9652 4.14062 48.9652 4.45312C48.9557 4.71354 49.0102 4.94081 49.1286 5.13494C49.2517 5.32907 49.4197 5.49716 49.6328 5.6392C49.8459 5.77651 50.0921 5.89725 50.3714 6.00142C50.6508 6.10085 50.9491 6.18608 51.2663 6.2571L52.5732 6.5696C53.2076 6.71165 53.79 6.90104 54.3203 7.13778C54.8506 7.37453 55.3099 7.66572 55.6982 8.01136C56.0864 8.35701 56.3871 8.7642 56.6001 9.23295C56.8179 9.7017 56.9292 10.2391 56.9339 10.8452C56.9292 11.7353 56.7019 12.5071 56.2521 13.1605C55.8071 13.8092 55.1631 14.3134 54.3203 14.6733C53.4822 15.0284 52.4714 15.206 51.2876 15.206C50.1134 15.206 49.0907 15.026 48.2195 14.6662C47.353 14.3063 46.6759 13.7737 46.1882 13.0682C45.7053 12.358 45.4519 11.4796 45.4283 10.4332H48.4041C48.4373 10.9209 48.5769 11.3281 48.8232 11.6548C49.0741 11.9768 49.4079 12.2206 49.8246 12.3864C50.246 12.5473 50.7218 12.6278 51.2521 12.6278C51.773 12.6278 52.2251 12.5521 52.6087 12.4006C52.9969 12.2491 53.2976 12.0384 53.5107 11.7685C53.7237 11.4986 53.8303 11.1884 53.8303 10.8381C53.8303 10.5114 53.7332 10.2367 53.5391 10.0142C53.3497 9.79167 53.0703 9.60227 52.701 9.44602C52.3364 9.28977 51.889 9.14773 51.3587 9.01989L49.7749 8.62216C48.5485 8.32386 47.5803 7.85748 46.87 7.22301C46.1598 6.58854 45.8071 5.7339 45.8118 4.65909C45.8071 3.77841 46.0414 3.009 46.5149 2.35085C46.9931 1.69271 47.6489 1.17898 48.4822 0.809659C49.3156 0.44034 50.2625 0.255681 51.3232 0.255681C52.4027 0.255681 53.3449 0.44034 54.1499 0.809659C54.9595 1.17898 55.5893 1.69271 56.0391 2.35085C56.4889 3.009 56.7209 3.77131 56.7351 4.63778H53.7876ZM64.7482 4.09091V6.36364H58.1786V4.09091H64.7482ZM59.6701 1.47727H62.6957V11.6477C62.6957 11.9271 62.7383 12.1449 62.8235 12.3011C62.9087 12.4527 63.0271 12.5592 63.1786 12.6207C63.3349 12.6823 63.5148 12.7131 63.7184 12.7131C63.8604 12.7131 64.0025 12.7012 64.1445 12.6776C64.2866 12.6491 64.3955 12.6278 64.4712 12.6136L64.9471 14.8651C64.7956 14.9124 64.5825 14.9669 64.3079 15.0284C64.0333 15.0947 63.6995 15.1349 63.3065 15.1491C62.5773 15.1776 61.9381 15.0805 61.3888 14.858C60.8443 14.6354 60.4206 14.2898 60.1175 13.821C59.8145 13.3523 59.6654 12.7604 59.6701 12.0455V1.47727ZM71.5309 15.2131C70.4277 15.2131 69.4736 14.9787 68.6687 14.5099C67.8685 14.0365 67.2506 13.3783 66.815 12.5355C66.3794 11.688 66.1616 10.7055 66.1616 9.58807C66.1616 8.46117 66.3794 7.47633 66.815 6.63352C67.2506 5.78598 67.8685 5.12784 68.6687 4.65909C69.4736 4.18561 70.4277 3.94886 71.5309 3.94886C72.6341 3.94886 73.5858 4.18561 74.386 4.65909C75.1909 5.12784 75.8112 5.78598 76.2468 6.63352C76.6824 7.47633 76.9002 8.46117 76.9002 9.58807C76.9002 10.7055 76.6824 11.688 76.2468 12.5355C75.8112 13.3783 75.1909 14.0365 74.386 14.5099C73.5858 14.9787 72.6341 15.2131 71.5309 15.2131ZM71.5451 12.8693C72.047 12.8693 72.466 12.7273 72.8022 12.4432C73.1384 12.1544 73.3917 11.7614 73.5621 11.2642C73.7373 10.767 73.8249 10.2012 73.8249 9.56676C73.8249 8.93229 73.7373 8.36648 73.5621 7.86932C73.3917 7.37216 73.1384 6.97917 72.8022 6.69034C72.466 6.40151 72.047 6.2571 71.5451 6.2571C71.0385 6.2571 70.6123 6.40151 70.2667 6.69034C69.9258 6.97917 69.6677 7.37216 69.4925 7.86932C69.3221 8.36648 69.2369 8.93229 69.2369 9.56676C69.2369 10.2012 69.3221 10.767 69.4925 11.2642C69.6677 11.7614 69.9258 12.1544 70.2667 12.4432C70.6123 12.7273 71.0385 12.8693 71.5451 12.8693ZM83.7965 15.2131C82.6933 15.2131 81.7392 14.9787 80.9343 14.5099C80.1341 14.0365 79.5162 13.3783 79.0806 12.5355C78.645 11.688 78.4272 10.7055 78.4272 9.58807C78.4272 8.46117 78.645 7.47633 79.0806 6.63352C79.5162 5.78598 80.1341 5.12784 80.9343 4.65909C81.7392 4.18561 82.6933 3.94886 83.7965 3.94886C84.8997 3.94886 85.8514 4.18561 86.6516 4.65909C87.4566 5.12784 88.0768 5.78598 88.5124 6.63352C88.948 7.47633 89.1658 8.46117 89.1658 9.58807C89.1658 10.7055 88.948 11.688 88.5124 12.5355C88.0768 13.3783 87.4566 14.0365 86.6516 14.5099C85.8514 14.9787 84.8997 15.2131 83.7965 15.2131ZM83.8107 12.8693C84.3126 12.8693 84.7317 12.7273 85.0678 12.4432C85.404 12.1544 85.6573 11.7614 85.8278 11.2642C86.003 10.767 86.0906 10.2012 86.0906 9.56676C86.0906 8.93229 86.003 8.36648 85.8278 7.86932C85.6573 7.37216 85.404 6.97917 85.0678 6.69034C84.7317 6.40151 84.3126 6.2571 83.8107 6.2571C83.3041 6.2571 82.878 6.40151 82.5323 6.69034C82.1914 6.97917 81.9334 7.37216 81.7582 7.86932C81.5877 8.36648 81.5025 8.93229 81.5025 9.56676C81.5025 10.2012 81.5877 10.767 81.7582 11.2642C81.9334 11.7614 82.1914 12.1544 82.5323 12.4432C82.878 12.7273 83.3041 12.8693 83.8107 12.8693ZM96.0621 15.2131C94.9589 15.2131 94.0049 14.9787 93.1999 14.5099C92.3997 14.0365 91.7818 13.3783 91.3462 12.5355C90.9106 11.688 90.6928 10.7055 90.6928 9.58807C90.6928 8.46117 90.9106 7.47633 91.3462 6.63352C91.7818 5.78598 92.3997 5.12784 93.1999 4.65909C94.0049 4.18561 94.9589 3.94886 96.0621 3.94886C97.1654 3.94886 98.1171 4.18561 98.9173 4.65909C99.7222 5.12784 100.342 5.78598 100.778 6.63352C101.214 7.47633 101.431 8.46117 101.431 9.58807C101.431 10.7055 101.214 11.688 100.778 12.5355C100.342 13.3783 99.7222 14.0365 98.9173 14.5099C98.1171 14.9787 97.1654 15.2131 96.0621 15.2131ZM96.0763 12.8693C96.5782 12.8693 96.9973 12.7273 97.3335 12.4432C97.6696 12.1544 97.9229 11.7614 98.0934 11.2642C98.2686 10.767 98.3562 10.2012 98.3562 9.56676C98.3562 8.93229 98.2686 8.36648 98.0934 7.86932C97.9229 7.37216 97.6696 6.97917 97.3335 6.69034C96.9973 6.40151 96.5782 6.2571 96.0763 6.2571C95.5697 6.2571 95.1436 6.40151 94.7979 6.69034C94.457 6.97917 94.199 7.37216 94.0238 7.86932C93.8533 8.36648 93.7681 8.93229 93.7681 9.56676C93.7681 10.2012 93.8533 10.767 94.0238 11.2642C94.199 11.7614 94.457 12.1544 94.7979 12.4432C95.1436 12.7273 95.5697 12.8693 96.0763 12.8693ZM106.424 8.69318V15H103.399V4.09091H106.282V6.01562H106.41C106.652 5.38116 107.056 4.87926 107.625 4.50994C108.193 4.13589 108.882 3.94886 109.691 3.94886C110.449 3.94886 111.109 4.11458 111.673 4.44602C112.236 4.77746 112.674 5.25095 112.987 5.86648C113.299 6.47727 113.456 7.20644 113.456 8.05398V15H110.43V8.59375C110.435 7.92614 110.264 7.4053 109.919 7.03125C109.573 6.65246 109.097 6.46307 108.491 6.46307C108.084 6.46307 107.724 6.55066 107.412 6.72585C107.104 6.90104 106.862 7.15672 106.687 7.4929C106.517 7.82434 106.429 8.22443 106.424 8.69318ZM120.812 15.2131C119.69 15.2131 118.724 14.9858 117.914 14.5312C117.109 14.072 116.489 13.4233 116.053 12.5852C115.618 11.7424 115.4 10.7457 115.4 9.59517C115.4 8.47301 115.618 7.48816 116.053 6.64062C116.489 5.79309 117.102 5.13258 117.893 4.65909C118.688 4.18561 119.621 3.94886 120.691 3.94886C121.411 3.94886 122.081 4.06487 122.701 4.29688C123.326 4.52415 123.871 4.86742 124.335 5.3267C124.803 5.78598 125.168 6.36364 125.428 7.05966C125.689 7.75095 125.819 8.56061 125.819 9.48864V10.3196H116.607V8.4446H122.971C122.971 8.009 122.876 7.62311 122.687 7.28693C122.497 6.95076 122.235 6.68797 121.898 6.49858C121.567 6.30445 121.181 6.20739 120.741 6.20739C120.281 6.20739 119.874 6.31392 119.519 6.52699C119.169 6.73532 118.894 7.01705 118.695 7.37216C118.496 7.72254 118.395 8.11316 118.39 8.54403V10.3267C118.39 10.8665 118.489 11.3329 118.688 11.7259C118.892 12.1188 119.178 12.4219 119.548 12.6349C119.917 12.848 120.355 12.9545 120.862 12.9545C121.198 12.9545 121.505 12.9072 121.785 12.8125C122.064 12.7178 122.303 12.5758 122.502 12.3864C122.701 12.197 122.853 11.965 122.957 11.6903L125.755 11.875C125.613 12.5473 125.322 13.1345 124.881 13.6364C124.446 14.1335 123.882 14.5218 123.191 14.8011C122.504 15.0758 121.711 15.2131 120.812 15.2131Z" fill="white"/>
</svg>
