<svg width="33" height="32" viewBox="0 0 33 32" fill="none" xmlns="http://www.w3.org/2000/svg">
<path id="Vector" d="M0 0V32H32.1412V0H0ZM2.92193 2.90909H29.2193V29.0909H2.92193V2.90909ZM20.6932 7.27557C18.8188 7.27557 18.1764 8.60968 18.1764 9.50568V11.8835C18.1764 13.0908 18.8369 14.2443 20.5448 14.2443C23.4112 14.2414 23.0644 12.082 23.0644 10.5824H20.8244V11.3693H22.1456C22.1456 12.5402 21.5952 13.3267 20.5476 13.3267C19.7207 13.3267 19.2436 12.6126 19.2436 11.625V9.65057C19.2436 8.73566 20.1059 8.20739 20.6932 8.20739C21.7407 8.20739 22.1427 9.12216 22.1427 9.12216L22.9331 8.59091C22.9331 8.59091 22.5486 7.27557 20.6932 7.27557ZM12.5409 11.7699C11.2187 11.7699 9.19961 11.8966 7.30767 11.8239V12.4091C8.44722 12.6287 8.92272 12.5182 8.92272 14.1648V22.2102C8.92272 23.8742 8.44576 23.7463 7.30767 23.9659V24.571C7.85845 24.5521 8.81145 24.4972 9.78446 24.4972C10.7034 24.4972 11.8982 24.5347 12.4125 24.571V23.9659C10.9427 23.7652 10.5007 23.9295 10.5007 22.2102V18.8097C10.9974 18.846 11.4211 18.8438 12.0815 18.8438C13.3306 21.075 14.5238 22.7415 15.2031 23.5284C16.4333 25.0091 18.4006 24.7907 18.8784 24.571V24.0227C18.1435 24.0213 17.4071 23.5279 16.8753 22.9432C15.9753 21.9745 14.7627 20.4009 13.7707 18.6278C15.4245 18.2249 16.6555 16.671 16.6555 15.1335C16.6555 12.8295 14.8726 11.7699 12.5409 11.7699ZM12.1557 12.6989C13.8825 12.6989 14.9092 13.5949 14.9092 15.2415C14.9078 16.8531 13.8066 17.929 11.9702 17.929C11.2908 17.929 10.9784 17.9114 10.5007 17.875V12.7528C10.9784 12.6976 11.6034 12.6989 12.1557 12.6989Z" fill="black"/>
</svg>
